<?xml version="1.0" encoding="utf-8"?>
<!-- Generator: Adobe Illustrator 24.1.1, SVG Export Plug-In . SVG Version: 6.00 Build 0)  -->
<svg viewBox="0 0 293.4 293.4">
    <circle class="gear-circle" clip-path="url(#gear-clip-path)" stroke-dasharray="600" stroke-dashoffset="-1100"
            fill="none"
            stroke="#E87722" stroke-width="45" stroke-miterlimit="10" cx="146.7" cy="146.7" r="124.1"/>

    <path class="gear-stroke" fill="none" stroke="#E87722" stroke-width="2" stroke-miterlimit="10" d="M165.4,27.5
	c8.4,1.3,16.7,3.5,24.7,6.6l13.2-17.4c1.4-1.9,4-2.4,6-1.2L229,26.8c2,1.2,2.9,3.7,2,5.8l-8.5,20.2c6.6,5.4,12.7,11.4,18,18
	l20.2-8.5c2.2-0.9,4.6-0.1,5.8,2L278,84.1c1.2,2,0.7,4.6-1.2,6l-17.4,13.2c3.1,8,5.3,16.2,6.6,24.7l21.7,2.8
	c2.3,0.3,4.1,2.3,4.1,4.6v22.8c0,2.3-1.7,4.3-4.1,4.6l-21.7,2.8c-1.3,8.4-3.5,16.7-6.6,24.7l17.4,13.2c1.9,1.4,2.4,4,1.2,6
	L266.6,229c-1.2,2-3.7,2.9-5.8,2l-20.2-8.5c-5.4,6.6-11.4,12.7-18,18l8.5,20.2c0.9,2.2,0.1,4.6-2,5.8L209.3,278
	c-2,1.2-4.6,0.7-6-1.2l-13.2-17.4c-8,3.1-16.2,5.3-24.7,6.6l-2.7,21.7c-0.3,2.3-2.3,4.1-4.6,4.1h-22.8c-2.3,0-4.3-1.7-4.6-4.1
	l-2.8-21.7c-8.4-1.3-16.7-3.5-24.7-6.6l-13.2,17.4c-1.4,1.9-4,2.4-6,1.2l-19.7-11.4c-2-1.2-2.9-3.7-2-5.8l8.5-20.2
	c-6.6-5.4-12.7-11.4-18-18L32.6,231c-2.2,0.9-4.6,0.1-5.8-2l-11.4-19.7c-1.2-2-0.7-4.6,1.2-6l17.4-13.2c-3.1-8-5.3-16.2-6.6-24.7
	l-21.7-2.8c-2.3-0.3-4.1-2.3-4.1-4.6v-22.8c0-2.3,1.7-4.3,4.1-4.6l21.7-2.8c1.3-8.4,3.5-16.7,6.6-24.7L16.6,90.1
	c-1.9-1.4-2.4-4-1.2-6l11.4-19.7c1.2-2,3.7-2.9,5.8-2l20.2,8.5c5.4-6.6,11.4-12.7,18-18l-8.5-20.2c-0.9-2.2-0.1-4.6,2-5.8L84,15.4
	c2-1.2,4.6-0.7,6,1.2l13.2,17.4c8-3.1,16.2-5.3,24.7-6.6l2.8-21.7c0.3-2.3,2.3-4.1,4.6-4.1h22.8c2.3,0,4.3,1.7,4.6,4.1L165.4,27.5z"/>

    <path class="gear-inner-circle" fill="#F0EFEB" d="M146.7,249.2c56.5,0,102.5-46,102.5-102.5c0-56.5-46-102.5-102.5-102.5
	S44.2,90.2,44.2,146.7C44.2,203.1,90.2,249.2,146.7,249.2z"/>

    <text class="svg-percentage" x="97" y="120" fill="red" style="font-size: 6.8rem;">61</text>
    <text class="svg-percentage" x="170" y="100" fill="red" style="font-size: 4rem;">%</text>
    <text class="svg-word-1" x="75" y="165" fill="red" style="font-size: 2.9rem;text-transform: uppercase;font-weight: 500;">personal</text>
    <text class="svg-word-2" x="84" y="197" fill="red" style="font-size: 2.9rem;text-transform: uppercase;font-weight: 500;">visioner</text>
</svg>